<svg width="128" height="128" viewBox="0 0 128 128" fill="none" xmlns="http://www.w3.org/2000/svg">
<path d="M58.2666 12.9335C57.8666 14.2669 56.9333 18.4002 56 22.0002C54.9333 27.3335 52.6666 30.8002 46 38.4002L37.3333 48.1335V76.8002C37.3333 114.8 34.8 112 69.0666 112C87.0666 112 94.8 111.467 96.4 110.267C97.6 109.467 102.8 99.3335 108 88.0002C118.667 64.1335 119.867 57.0669 114 51.3335C110.933 48.1335 110.267 48.0002 90.1333 48.0002H69.4666L71.4666 42.4002C76.6666 27.3335 74.9333 16.9335 66.1333 12.8002C60.4 10.1335 58.9333 10.1335 58.2666 12.9335Z" fill="white"/>
<path d="M10.6667 80V112H18.6667H26.6667V80V48H18.6667H10.6667V80Z" fill="white"/>
</svg>
