<svg width="128" height="128" viewBox="0 0 128 128" fill="none" xmlns="http://www.w3.org/2000/svg">
<path d="M58.1335 13.4668C54.4001 16.4002 50.4001 23.3335 47.2001 32.2668L45.4668 37.3335H64.0001H82.5335L80.8001 32.2668C76.1335 19.2002 69.4668 10.6668 64.0001 10.6668C62.6668 10.6668 60.1335 11.8668 58.1335 13.4668Z" fill="white"/>
<path d="M34.5334 19.7335C28.8001 23.4668 18.6667 34.0002 18.6667 36.2668C18.6667 36.8002 22.2667 37.3335 26.6667 37.3335H34.5334L36.1334 31.7335C36.9334 28.5335 38.8001 23.7335 40.1334 21.0668C43.2001 15.0668 42.4001 14.8002 34.5334 19.7335Z" fill="white"/>
<path d="M87.8668 21.0668C89.2001 23.7335 91.0668 28.5335 91.8668 31.7335L93.4668 37.3335H101.333C105.733 37.3335 109.333 36.8002 109.333 36.2668C109.333 32.5335 90.6668 16.0002 86.4001 16.0002C85.7335 16.0002 86.4001 18.2668 87.8668 21.0668Z" fill="white"/>
<path d="M12.2667 50.2667C11.0667 53.3333 11.0667 74.6667 12.2667 77.6C13.0667 79.6 14.9334 80 22.9334 80H32.6667V64V48H22.9334C14.9334 48 13.0667 48.4 12.2667 50.2667Z" fill="white"/>
<path d="M43.4667 50.9334C42.4001 54.9334 42.4001 73.0667 43.4667 76.9334C44.2667 80.0001 44.6667 80.0001 64.0001 80.0001C86.8001 80.0001 85.3334 81.2001 85.3334 64.0001C85.3334 46.8001 86.8001 48.0001 64.0001 48.0001C44.6667 48.0001 44.2667 48.0001 43.4667 50.9334Z" fill="white"/>
<path d="M95.3333 64V80.1333L105.333 79.7333L115.333 79.3333L116.533 71.6C117.333 67.0666 117.333 60.9333 116.533 56.2666L115.333 48.6666L105.333 48.2666L95.3333 47.8666V64Z" fill="white"/>
<path d="M18.6667 91.7333C18.6667 95.4667 37.3334 112 41.6001 112C42.2667 112 41.6001 109.733 40.1334 106.933C38.8001 104.267 36.9334 99.4667 36.1334 96.2667L34.5334 90.6667H26.6667C22.2667 90.6667 18.6667 91.2 18.6667 91.7333Z" fill="white"/>
<path d="M47.2001 95.7335C51.8668 108.8 58.5335 117.333 64.0001 117.333C69.4668 117.333 76.1335 108.8 80.8001 95.7335L82.5335 90.6668H64.0001H45.4668L47.2001 95.7335Z" fill="white"/>
<path d="M91.8668 96.2667C91.0668 99.4667 89.2001 104.267 87.8668 106.933C86.4001 109.733 85.7335 112 86.4001 112C90.6668 112 109.333 95.4667 109.333 91.7333C109.333 91.2 105.733 90.6667 101.333 90.6667H93.4668L91.8668 96.2667Z" fill="white"/>
</svg>
