<svg width="283" height="83" viewBox="0 0 283 83" fill="none" xmlns="http://www.w3.org/2000/svg">
<path d="M33.3269 1.909C28.2603 3.37567 10.7936 10.309 9.59359 11.3757C9.46025 11.509 16.7936 11.3757 26.1269 10.9757C46.2603 10.1757 55.8603 11.909 63.0603 17.6423L68.1269 21.6423L67.1936 17.7757C63.7269 2.17567 51.8603 -3.291 33.3269 1.909Z" fill="#DA2339"/>
<path d="M71.1934 31.7757C71.3268 52.9757 70.2601 58.5757 64.3934 65.509L60.9268 69.509L64.7934 68.5757C74.3934 66.309 80.3934 60.709 81.8601 52.8424C83.0601 46.709 79.7268 31.6424 75.0601 20.8424L71.1934 12.0424V31.7757Z" fill="#0066FF"/>
<path d="M265.86 16.4423C263.193 18.709 262.26 20.8423 262.26 24.0423C262.26 29.2423 267.593 34.709 272.793 34.709C277.46 34.709 282.66 29.109 282.66 24.0423C282.66 18.9756 277.46 13.3757 272.793 13.3757C270.927 13.3757 267.86 14.8423 265.86 16.4423ZM277.86 17.509C285.06 23.2423 280.26 32.8423 270.393 32.1757C263.993 31.7757 261.46 20.5757 266.927 16.8423C270.927 14.0423 273.593 14.1756 277.86 17.509Z" fill="#DA2339"/>
<path d="M268.927 18.3091C268.393 18.7091 268.127 21.6424 268.127 24.5757C268.26 27.6424 268.527 28.9757 268.927 27.6424C269.593 24.8424 273.06 24.5757 274.127 27.3757C274.66 28.4424 275.593 29.3757 276.26 29.3757C277.06 29.3757 276.927 28.5757 275.993 27.3757C274.66 25.7757 274.66 24.9757 276.127 23.2424C277.593 21.3757 277.46 20.8424 275.327 19.2424C272.66 17.2424 270.26 16.8424 268.927 18.3091ZM274.66 21.1091C274.66 22.9757 273.193 23.9091 271.193 23.1091C268.393 22.0424 268.927 20.0424 271.993 20.0424C273.46 20.0424 274.66 20.5757 274.66 21.1091Z" fill="#DA2339"/>
<path d="M13.9934 15.6423C9.5934 16.8423 4.12674 21.3757 1.86007 25.7757C-1.73993 32.5757 -0.00659587 47.509 6.12674 61.7757C8.7934 68.1757 11.1934 73.2423 11.3267 73.109C11.4601 72.8423 11.0601 67.6423 10.3934 61.3757C8.26007 41.2423 11.5934 22.5757 18.2601 17.3757C21.1934 15.109 21.3267 14.709 19.1934 14.8423C17.7267 14.9757 15.4601 15.3757 13.9934 15.6423Z" fill="#0066FF"/>
<path d="M46.6602 17.1091C46.6602 17.7757 47.7268 19.3757 49.1935 20.5758C53.0602 24.0424 59.0602 38.4424 58.3935 42.7091C57.7268 47.2424 60.2602 46.7091 62.5268 41.9091C64.6602 36.9757 64.3935 34.4424 60.7935 29.5091C56.9268 24.4424 46.6602 15.2424 46.6602 17.1091Z" fill="#DA2339"/>
<path d="M90.6602 41.3757V65.3757H97.7268H104.66L104.26 48.0424C103.86 32.7091 104.127 30.5757 106.127 29.7757C108.927 28.7091 112.527 30.8424 113.06 33.9091C113.327 35.3757 112.527 36.4424 110.793 36.9757C108.393 37.6424 107.993 38.7091 107.993 44.5757C107.993 48.7091 109.193 54.0424 110.927 58.3091L113.993 65.3757H121.593H129.193L124.927 55.3757L120.793 45.3757L123.86 42.1757C127.46 38.3091 128.127 29.9091 125.193 24.5757C122.26 18.9757 117.46 17.3757 103.327 17.3757H90.6602V41.3757Z" fill="#DA2339"/>
<path d="M25.86 24.3091C19.7266 29.9091 13.86 38.1757 19.46 33.1091C24.26 28.8424 39.7266 22.4424 42.9266 23.3757L45.9933 24.1757L42.7933 21.5091C37.86 17.1091 32.7933 17.9091 25.86 24.3091Z" fill="#0066FF"/>
<path d="M33.5934 31.5091C31.9934 32.5757 29.9934 34.8424 29.3267 36.4424C28.2601 38.5757 28.6601 38.4424 31.0601 35.5091C33.1934 33.1091 35.5934 31.6424 37.9934 31.6424C40.5267 31.6424 41.0601 31.3757 39.8601 30.5757C37.3267 28.9757 37.0601 29.1091 33.5934 31.5091Z" fill="#DA2339"/>
<path d="M45.8601 32.4424C48.7934 34.8424 49.7267 36.8424 49.9934 41.1091C50.3934 47.2424 48.2601 50.0424 42.6601 51.1091C39.4601 51.6424 39.4601 51.6424 43.0601 51.9091C47.1934 52.0424 54.5267 45.6424 51.9934 44.0424C51.0601 43.5091 50.9267 41.6424 51.3267 39.6424C52.1267 36.8424 51.4601 35.3757 48.6601 32.7091C46.5267 30.8424 44.2601 29.3757 43.4601 29.3757C42.6601 29.3757 43.7267 30.7091 45.8601 32.4424Z" fill="#DA2339"/>
<path d="M133.327 45.109C133.327 55.7757 133.86 60.1757 135.327 62.309C138.127 66.4424 145.727 67.6424 151.46 64.9757C157.06 62.1757 159.06 55.7757 158.393 41.2424L157.993 30.709H153.06H147.993V43.109C147.993 56.1757 147.593 57.6424 144.527 56.4424C143.06 55.909 142.66 52.709 142.66 43.2424V30.709H137.993H133.327V45.109Z" fill="#DA2339"/>
<path d="M165.327 45.2424C165.327 59.3757 165.46 59.9091 168.793 62.5757C170.793 64.1757 173.993 65.3757 175.86 65.3757C178.927 65.3757 179.327 64.8424 179.327 60.9757C179.327 58.1757 178.527 56.4424 177.06 55.7757C175.06 54.9757 174.66 52.9757 174.66 42.7091V30.7091H169.993H165.327V45.2424Z" fill="#DA2339"/>
<path d="M185.46 34.1757C183.193 37.1091 182.66 39.6424 182.66 48.3091C182.66 57.6424 183.06 59.2424 185.993 62.0424C188.527 64.7091 190.527 65.3757 195.993 65.3757H202.66V60.8424C202.66 56.4424 202.393 56.1757 197.727 55.7757C191.593 55.2424 191.593 52.9757 197.46 52.0424C201.06 51.5091 201.86 50.7091 201.86 47.6424C202.127 44.4424 201.593 44.0424 197.727 44.0424C194.66 44.0424 193.327 43.3757 193.327 42.0424C193.327 40.7091 194.793 40.0424 197.993 40.0424C202.393 40.0424 202.66 39.7757 202.66 35.3757V30.7091H195.46C189.193 30.7091 187.86 31.2424 185.46 34.1757Z" fill="#DA2339"/>
<path d="M209.593 39.3757L213.86 48.0424L209.593 55.9091C207.327 60.1757 205.327 64.0424 205.327 64.5757C205.327 64.9757 207.46 65.3757 210.127 65.3757C214.26 65.3757 215.06 64.8424 216.393 61.3757C218.26 56.3091 219.06 56.3091 220.927 61.3757C222.393 65.3757 222.527 65.3757 232.26 65.3757H242.127L243.86 60.9757L245.46 56.7091L247.727 60.9757C249.46 64.8424 250.527 65.3757 254.927 65.3757C257.727 65.3757 259.993 65.1091 259.993 64.7091C259.993 64.4424 258.127 60.4424 255.86 55.9091L251.593 47.6424L255.86 39.1091L259.993 30.7091H254.793C250.393 30.7091 249.46 31.2424 248.793 34.0424C248.26 35.9091 247.46 37.3757 246.793 37.3757C246.26 37.3757 245.06 35.9091 244.26 34.0424C242.793 30.9757 242.127 30.7091 232.66 30.7091C223.193 30.7091 222.66 30.8424 221.86 34.0424C221.46 35.9091 220.527 37.3757 219.86 37.3757C219.193 37.3757 217.86 35.9091 217.06 34.0424C215.86 31.3757 214.66 30.7091 210.393 30.7091H205.327L209.593 39.3757ZM237.06 54.9757C234.927 59.2424 233.06 62.7091 232.66 62.7091C232.26 62.7091 230.26 59.2424 228.127 55.1091L224.26 47.3757L228.393 39.6424L232.393 31.7757L236.66 39.6424L240.793 47.3757L237.06 54.9757Z" fill="#DA2339"/>
<path d="M20.1267 39.509C18.5267 41.509 17.3267 44.309 17.3267 45.7757C17.3267 50.9757 24.3933 59.509 32.9267 64.5757C33.86 64.9757 32.5267 62.4423 29.9933 58.8423C24.7933 50.8423 22.1267 43.7757 23.06 39.2423C23.7267 35.2423 23.46 35.2423 20.1267 39.509Z" fill="#DA2339"/>
<path d="M29.5935 43.5091C29.4602 46.0424 30.2602 48.4424 31.7268 49.6424C35.1935 52.7091 37.3268 53.6424 37.3268 52.3091C37.3268 51.6424 35.8602 50.4424 34.1268 49.6424C31.8602 48.5758 30.6602 46.8424 30.2602 43.7758L29.7268 39.3757L29.5935 43.5091Z" fill="#DA2339"/>
<path d="M57.9935 52.8423C50.1268 58.1757 43.7268 60.5757 39.0601 59.6423C35.8601 59.109 35.7268 59.109 38.1268 61.509C42.3935 65.509 46.9268 65.909 51.8601 62.4423C55.5935 59.909 66.7935 47.909 65.1935 48.1757C64.9268 48.1757 61.7268 50.309 57.9935 52.8423Z" fill="#0066FF"/>
<path d="M13.7268 63.3757C14.1268 64.8424 14.9268 67.509 15.3268 69.3757C16.6601 74.1757 22.3934 79.7757 27.5934 81.509C35.0601 83.909 47.0601 81.909 60.7934 75.7757C67.7268 72.8424 73.1934 70.1757 73.0601 70.0424C72.7934 69.7757 69.0601 70.309 64.6601 70.9757C53.7268 72.8424 31.3268 71.509 24.6601 68.8424C21.7268 67.6424 17.9934 65.2424 16.1268 63.6424C13.1934 60.8424 13.0601 60.8424 13.7268 63.3757Z" fill="#DA2339"/>
</svg>
