<svg width="128" height="128" viewBox="0 0 128 128" fill="none" xmlns="http://www.w3.org/2000/svg">
<path d="M40 15.8667L16.6666 26.4L16.2666 45.8667C15.8666 67.6 17.5999 78 23.4666 89.7333C28.5333 99.7333 42.6666 113.2 53.7333 118.667C62 122.667 63.2 122.933 67.8666 121.6C75.4666 119.2 87.8666 110.667 95.0666 102.667C108.533 87.7333 112.267 74.9333 111.733 45.8667L111.333 26.4L88 15.8667C75.2 10.1333 64.4 5.46667 64 5.46667C63.6 5.46667 52.7999 10.1333 40 15.8667ZM93.3333 46L96.5333 49.4667L77.6 68.4L58.6666 87.3333L47.7333 76.4L36.6666 65.3333L40.4 61.7333L44 58.1333L51.3333 65.3333L58.6666 72.6667L73.7333 57.6C81.8666 49.4667 89.0666 42.6667 89.4666 42.6667C89.8666 42.6667 91.6 44.1333 93.3333 46Z" fill="white"/>
</svg>
