<svg width="200" height="263" viewBox="0 0 200 263" fill="none" xmlns="http://www.w3.org/2000/svg">
<path d="M100 0C58.4524 0 25 33.4524 25 75V87.5C11.25 87.5 0 98.75 0 112.5V237.5C0 251.25 11.25 262.5 25 262.5H175C188.75 262.5 200 251.25 200 237.5V112.5C200 98.75 188.75 87.5 175 87.5V75C175 33.4524 141.548 0 100 0ZM100 25C128.452 25 150 46.5476 150 75V87.5H50V75C50 46.5476 71.5476 25 100 25ZM50 162.5C56.875 162.5 62.5 168.125 62.5 175C62.5 181.875 56.875 187.5 50 187.5C43.125 187.5 37.5 181.875 37.5 175C37.5 168.125 43.125 162.5 50 162.5ZM100 162.5C106.875 162.5 112.5 168.125 112.5 175C112.5 181.875 106.875 187.5 100 187.5C93.125 187.5 87.5 181.875 87.5 175C87.5 168.125 93.125 162.5 100 162.5ZM150 162.5C156.875 162.5 162.5 168.125 162.5 175C162.5 181.875 156.875 187.5 150 187.5C143.125 187.5 137.5 181.875 137.5 175C137.5 168.125 143.125 162.5 150 162.5Z" fill="#DA2339"/>
</svg>
