<svg width="270" height="270" viewBox="0 0 270 270" fill="none" xmlns="http://www.w3.org/2000/svg">
<path d="M267.752 253.125L180.002 111.375V22.5H191.252C198.002 22.5 202.502 18 202.502 11.25C202.502 4.5 198.002 0 191.252 0H157.502V111.375L196.877 180H73.1271L112.502 111.375V0H78.7521C72.0021 0 67.5021 4.5 67.5021 11.25C67.5021 18 72.0021 22.5 78.7521 22.5H90.0021V111.375L2.25215 254.25C-3.37285 262.125 2.25215 270 11.2521 270H258.752C267.752 270 273.377 264.375 267.752 253.125ZM33.7521 247.5L66.3771 191.25H203.627L236.252 247.5H33.7521Z" fill="#DA2339"/>
</svg>
