<svg width="250" height="250" viewBox="0 0 250 250" fill="none" xmlns="http://www.w3.org/2000/svg">
<path id="Vector" d="M117.798 0C114.748 0 112.121 2.21211 111.621 5.22461L108.081 26.5381C101.997 27.584 96.1147 29.201 90.4541 31.2988L76.6846 14.5996C74.7471 12.2371 71.3756 11.6217 68.7256 13.1592L56.2744 20.3613C53.6244 21.8863 52.465 25.1041 53.54 27.9541L61.1084 48.1689C56.4155 52.08 52.08 56.4155 48.1689 61.1084L27.9541 53.54C25.1041 52.465 21.8863 53.6244 20.3613 56.2744L13.1592 68.7256C11.6217 71.3756 12.2371 74.7471 14.5996 76.6846L31.2988 90.4541C29.201 96.1147 27.584 101.997 26.5381 108.081L5.22461 111.621C2.21211 112.134 0 114.735 0 117.798V132.202C0 135.252 2.21211 137.879 5.22461 138.379L26.5381 141.919C27.584 148.003 29.201 153.885 31.2988 159.546L14.5996 173.315C12.2371 175.253 11.6342 178.624 13.1592 181.274L20.3613 193.726C21.8863 196.376 25.1041 197.535 27.9541 196.46L48.1689 188.892C52.08 193.585 56.4155 197.92 61.1084 201.831L53.54 222.046C52.465 224.908 53.6369 228.114 56.2744 229.639L68.7256 236.841C71.3756 238.366 74.7471 237.75 76.6846 235.4L90.4297 218.701C96.0968 220.803 101.989 222.415 108.081 223.462L111.621 244.775C112.134 247.788 114.735 250 117.798 250H132.202C135.252 250 137.879 247.788 138.379 244.775L141.919 223.462C148.003 222.416 153.885 220.799 159.546 218.701L173.315 235.4C175.253 237.763 178.624 238.366 181.274 236.841L193.726 229.639C196.376 228.114 197.535 224.896 196.46 222.046L188.892 201.831C193.585 197.92 197.92 193.585 201.831 188.892L222.046 196.46C224.908 197.535 228.114 196.363 229.639 193.726L236.841 181.274C238.366 178.624 237.75 175.253 235.4 173.315L218.701 159.57C220.803 153.903 222.415 148.011 223.462 141.919L244.775 138.379C247.788 137.866 250 135.265 250 132.202V117.798C250 114.748 247.788 112.121 244.775 111.621L223.462 108.081C222.416 101.997 220.799 96.1147 218.701 90.4541L235.4 76.6846C237.763 74.7471 238.366 71.3756 236.841 68.7256L229.639 56.2744C228.114 53.6244 224.896 52.465 222.046 53.54L201.831 61.1084C197.92 56.4155 193.585 52.08 188.892 48.1689L196.46 27.9541C197.535 25.0916 196.363 21.8863 193.726 20.3613L181.274 13.1592C178.624 11.6342 175.253 12.2496 173.315 14.5996L159.57 31.2988C153.903 29.197 148.011 27.5853 141.919 26.5381L138.379 5.22461C137.866 2.21211 135.265 0 132.202 0H117.798ZM112.5 51.123V89.6729C105.193 92.2562 98.8663 97.0399 94.3895 103.366C89.9127 109.692 87.5058 117.25 87.5 125C87.5006 127.301 87.7131 129.598 88.1348 131.86L54.7363 151.123C51.7279 142.985 50 134.212 50 125C50 87.7018 76.942 57.0475 112.5 51.123ZM137.5 51.123C173.058 57.0475 200 87.7018 200 125C200 134.223 198.255 143.002 195.239 151.147L161.841 131.836C162.269 129.582 162.49 127.294 162.5 125C162.489 117.254 160.08 109.702 155.603 103.38C151.127 97.0592 144.803 92.2792 137.5 89.6973V51.123ZM149.341 153.467L182.861 172.827C169.13 189.45 148.358 200 125 200C101.642 200 80.8702 189.45 67.1387 172.827L100.635 153.491C107.424 159.301 116.064 162.496 125 162.5C133.93 162.483 142.562 159.28 149.341 153.467Z" fill="#DA2339"/>
</svg>
