<svg width="60" height="35" viewBox="0 0 60 35" fill="none" xmlns="http://www.w3.org/2000/svg">
<g id="&#240;&#159;&#166;&#134; icon &#34;menu 1&#34;">
<g id="Group">
<path id="Vector" d="M57.6923 4.54106H2.30769C1.04615 4.54106 0 3.51176 0 2.27053C0 1.02931 1.04615 0 2.30769 0H57.6923C58.9538 0 60 1.02931 60 2.27053C60 3.51176 58.9538 4.54106 57.6923 4.54106Z" fill="#DA2339"/>
<path id="Vector_2" d="M57.6923 19.6779H2.30769C1.04615 19.6779 0 18.6486 0 17.4074C0 16.1661 1.04615 15.1368 2.30769 15.1368H57.6923C58.9538 15.1368 60 16.1661 60 17.4074C60 18.6486 58.9538 19.6779 57.6923 19.6779Z" fill="#DA2339"/>
<path id="Vector_3" d="M57.6923 34.8149H2.30769C1.04615 34.8149 0 33.7856 0 32.5443C0 31.3031 1.04615 30.2738 2.30769 30.2738H57.6923C58.9538 30.2738 60 31.3031 60 32.5443C60 33.7856 58.9538 34.8149 57.6923 34.8149Z" fill="#DA2339"/>
</g>
</g>
</svg>
